<?xml version="1.0" encoding="utf-8"?>
<!-- Generator: Adobe Illustrator 21.0.1, SVG Export Plug-In . SVG Version: 6.00 Build 0)  -->
<svg version="1.1" id="Calque_1" xmlns="http://www.w3.org/2000/svg" xmlns:xlink="http://www.w3.org/1999/xlink" x="0px" y="0px"
	 viewBox="0 0 432 432" style="enable-background:new 0 0 432 432;" xml:space="preserve">
<g>
	<path d="M425.8,0h-3.9h-0.8h-3.9H399h-18.2h-3.9h-0.8h-3.9H354h-18.2h-3.9h-0.8h-3.9H309h-18.2h-3.9h-0.8h-3.9H264h-18.2h-3.9h-0.8
		h-3.9H219h-18.2h-3.9h-0.8h-3.9H174h-18.2h-3.9h-0.8h-3.9H129h-18.2h-3.9h-0.8h-3.9H84H65.8h-3.9h-0.8h-3.9H39H20.8h-3.9h-0.8h-3.9
		H0v17v6.7v21.5V52v23v23v6.7v21.5v6.7v23v23v6.7v21.5v6.7v23v23v6.7v21.5v6.7v23v23v6.7v21.5v6.7v23v23v6.7v3.3h34.5h3.8H39h0.7
		h3.8h36h3.8H84h0.7h3.8h36h3.8h0.7h0.7h3.8h36h3.8h0.7h0.7h3.8h36h3.8h0.7h0.7h3.8h36h3.8h0.7h0.7h3.8h36h3.8h0.7h0.7h3.8h36h3.8
		h0.7h0.7h3.8h36h3.8h0.7h0.7h3.8H432v-12.1v-5.7V399v-15.1v-5.7v-39.2v-5.7V318v-15.1v-5.7v-39.2v-5.7V237v-15.1v-5.7v-39.2v-5.7
		V156v-15.1v-5.7V95.9v-5.7V75V59.9v-5.7V14.9V9.1V0H425.8z M423.4,2.9c1.7,2.9,3.7,5.6,5.7,8.3v46.7c-2.9,3.8-5.7,7.7-7.6,12
		c-2.4-5.3-6-10-9.6-14.6c-4.6-6-9.9-12.8-9.9-20.8c0-8,5.3-14.7,9.9-20.8c2.7-3.5,5.5-7,7.7-10.8H423.4z M429.1,138.9
		c-2.9,3.8-5.7,7.7-7.6,12c-2.4-5.3-6-10-9.6-14.6c-4.6-6-9.9-12.8-9.9-20.8c0-8,5.3-14.7,9.9-20.8c3.6-4.6,7.2-9.3,9.6-14.6
		c1.9,4.3,4.7,8.2,7.6,12V138.9z M429.1,219.9c-2.9,3.8-5.7,7.7-7.6,12c-2.4-5.3-6-10-9.6-14.6c-4.6-6-9.9-12.8-9.9-20.8
		c0-8,5.3-14.7,9.9-20.8c3.6-4.6,7.2-9.3,9.6-14.6c1.9,4.3,4.7,8.2,7.6,12V219.9z M429.1,300.9c-2.9,3.8-5.7,7.7-7.6,12
		c-2.4-5.3-6-10-9.6-14.6c-4.6-6-9.9-12.8-9.9-20.8c0-8,5.3-14.7,9.9-20.8c3.6-4.6,7.2-9.3,9.6-14.6c1.9,4.3,4.7,8.2,7.6,12V300.9z
		 M429.1,381.9c-2.9,3.8-5.7,7.7-7.6,12c-2.4-5.3-6-10-9.6-14.6c-4.6-6-9.9-12.8-9.9-20.8c0-8,5.3-14.7,9.9-20.8
		c3.6-4.6,7.2-9.3,9.6-14.6c1.9,4.3,4.7,8.2,7.6,12V381.9z M399,353.6C399,353.6,399,353.6,399,353.6c-2.9-13.5-16.8-22.3-20.7-35.6
		c0,0,0,0,0,0c3.8-13.3,17.8-22.1,20.7-35.6c2.9,13.5,16.8,22.3,20.7,35.6c0,0,0,0,0,0C415.8,331.3,401.9,340.1,399,353.6z
		 M376.5,393.9c-2.4-5.3-6-10-9.6-14.6c-4.6-6-9.9-12.8-9.9-20.8c0-8,5.3-14.7,9.9-20.8c3.6-4.6,7.2-9.3,9.6-14.6
		c2.4,5.3,6,10,9.6,14.6c4.6,6,9.9,12.8,9.9,20.8c0,8-5.3,14.7-9.9,20.8C382.5,383.9,378.9,388.6,376.5,393.9z M354,353.6
		C354,353.6,354,353.6,354,353.6c-2.9-13.5-16.8-22.3-20.7-35.6c0,0,0,0,0,0c3.8-13.3,17.8-22.1,20.7-35.6
		c2.9,13.5,16.8,22.3,20.7,35.6c0,0,0,0,0,0C370.8,331.3,356.9,340.1,354,353.6z M331.5,393.9c-2.4-5.3-6-10-9.6-14.6
		c-4.6-6-9.9-12.8-9.9-20.8c0-8,5.3-14.7,9.9-20.8c3.6-4.6,7.2-9.3,9.6-14.6c2.4,5.3,6,10,9.6,14.6c4.6,6,9.9,12.8,9.9,20.8
		c0,8-5.3,14.7-9.9,20.8C337.5,383.9,333.9,388.6,331.5,393.9z M309,353.6C309,353.6,309,353.6,309,353.6
		c-2.9-13.5-16.8-22.3-20.7-35.6c0,0,0,0,0,0c3.8-13.3,17.8-22.1,20.7-35.6c2.9,13.5,16.8,22.3,20.7,35.6c0,0,0,0,0,0
		C325.8,331.3,311.9,340.1,309,353.6z M286.5,393.9c-2.4-5.3-6-10-9.6-14.6c-4.6-6-9.9-12.8-9.9-20.8c0-8,5.3-14.7,9.9-20.8
		c3.6-4.6,7.2-9.3,9.6-14.6c2.4,5.3,6,10,9.6,14.6c4.6,6,9.9,12.8,9.9,20.8c0,8-5.3,14.7-9.9,20.8
		C292.5,383.9,288.9,388.6,286.5,393.9z M264,353.6C264,353.6,264,353.6,264,353.6c-2.9-13.5-16.8-22.3-20.7-35.6c0,0,0,0,0,0
		c3.8-13.3,17.8-22.1,20.7-35.6c2.9,13.5,16.8,22.3,20.7,35.6c0,0,0,0,0,0C280.8,331.3,266.9,340.1,264,353.6z M241.5,393.9
		c-2.4-5.3-6-10-9.6-14.6c-4.6-6-9.9-12.8-9.9-20.8c0-8,5.3-14.7,9.9-20.8c3.6-4.6,7.2-9.3,9.6-14.6c2.4,5.3,6,10,9.6,14.6
		c4.6,6,9.9,12.8,9.9,20.8c0,8-5.3,14.7-9.9,20.8C247.5,383.9,243.9,388.6,241.5,393.9z M219,353.6C219,353.6,219,353.6,219,353.6
		c-2.9-13.5-16.8-22.3-20.7-35.6c0,0,0,0,0,0c3.8-13.3,17.8-22.1,20.7-35.6c2.9,13.5,16.8,22.3,20.7,35.6c0,0,0,0,0,0
		C235.8,331.3,221.9,340.1,219,353.6z M196.5,393.9c-2.4-5.3-6-10-9.6-14.6c-4.6-6-9.9-12.8-9.9-20.8c0-8,5.3-14.7,9.9-20.8
		c3.6-4.6,7.2-9.3,9.6-14.6c2.4,5.3,6,10,9.6,14.6c4.6,6,9.9,12.8,9.9,20.8c0,8-5.3,14.7-9.9,20.8
		C202.5,383.9,198.9,388.6,196.5,393.9z M174,353.6C174,353.6,174,353.6,174,353.6c-2.9-13.5-16.8-22.3-20.7-35.6c0,0,0,0,0,0
		c3.8-13.3,17.8-22.1,20.7-35.6c2.9,13.5,16.8,22.3,20.7,35.6c0,0,0,0,0,0C190.8,331.3,176.9,340.1,174,353.6z M151.5,393.9
		c-2.4-5.3-6-10-9.6-14.6c-4.6-6-9.9-12.8-9.9-20.8c0-8,5.3-14.7,9.9-20.8c3.6-4.6,7.2-9.3,9.6-14.6c2.4,5.3,6,10,9.6,14.6
		c4.6,6,9.9,12.8,9.9,20.8c0,8-5.3,14.7-9.9,20.8C157.5,383.9,153.9,388.6,151.5,393.9z M129,353.6C129,353.6,129,353.6,129,353.6
		c-2.9-13.5-16.8-22.3-20.7-35.6c0,0,0,0,0,0c3.8-13.3,17.8-22.1,20.7-35.6c2.9,13.5,16.8,22.3,20.7,35.6c0,0,0,0,0,0
		C145.8,331.3,131.9,340.1,129,353.6z M106.5,393.9c-2.4-5.3-6-10-9.6-14.6c-4.6-6-9.9-12.8-9.9-20.8c0-8,5.3-14.7,9.9-20.8
		c3.6-4.6,7.2-9.3,9.6-14.6c2.4,5.3,6,10,9.6,14.6c4.6,6,9.9,12.8,9.9,20.8c0,8-5.3,14.7-9.9,20.8
		C112.5,383.9,108.9,388.6,106.5,393.9z M84,353.6C84,353.6,84,353.6,84,353.6c-2.9-13.5-16.8-22.3-20.7-35.6c0,0,0,0,0,0
		c3.8-13.3,17.8-22.1,20.7-35.6c2.9,13.5,16.8,22.3,20.7,35.6c0,0,0,0,0,0C100.8,331.3,86.9,340.1,84,353.6z M61.5,393.9
		c-2.4-5.3-6-10-9.6-14.6c-4.6-6-9.9-12.8-9.9-20.8c0-8,5.3-14.7,9.9-20.8c3.6-4.6,7.2-9.3,9.6-14.6c2.4,5.3,6,10,9.6,14.6
		c4.6,6,9.9,12.8,9.9,20.8c0,8-5.3,14.7-9.9,20.8C67.5,383.9,63.9,388.6,61.5,393.9z M39,353.6C39,353.6,39,353.6,39,353.6
		c-2.9-13.5-16.8-22.3-20.7-35.6c0,0,0,0,0,0c3.8-13.3,17.8-22.1,20.7-35.6c2.9,13.5,16.8,22.3,20.7,35.6c0,0,0,0,0,0
		C55.8,331.3,41.9,340.1,39,353.6z M18.3,237c3.8-13.3,17.8-22.1,20.7-35.6c2.9,13.5,16.8,22.3,20.7,35.6c0,0,0,0,0,0
		c-3.8,13.3-17.8,22.1-20.7,35.6c0,0,0,0,0,0C36.1,259.1,22.1,250.3,18.3,237C18.3,237,18.3,237,18.3,237z M18.3,156
		c3.8-13.3,17.8-22.1,20.7-35.6c2.9,13.5,16.8,22.3,20.7,35.6c0,0,0,0,0,0c-3.8,13.3-17.8,22.1-20.7,35.6c0,0,0,0,0,0
		C36.1,178.1,22.1,169.3,18.3,156C18.3,156,18.3,156,18.3,156z M18.3,75C22.2,61.7,36.1,52.9,39,39.4C41.9,52.9,55.8,61.7,59.6,75
		c0,0,0,0,0,0C55.8,88.3,41.9,97.1,39,110.6c0,0,0,0,0,0C36.1,97.1,22.1,88.3,18.3,75C18.3,75,18.3,75,18.3,75z M84,39.4
		c2.9,13.5,16.8,22.3,20.7,35.6c0,0,0,0,0,0c-3.8,13.3-17.8,22.1-20.7,35.6c0,0,0,0,0,0C81.1,97.1,67.1,88.3,63.3,75c0,0,0,0,0,0
		C67.2,61.7,81.1,52.9,84,39.4z M129,39.4c2.9,13.5,16.8,22.3,20.7,35.6c0,0,0,0,0,0c-3.8,13.3-17.8,22.1-20.7,35.6c0,0,0,0,0,0
		c-2.9-13.5-16.8-22.3-20.7-35.6c0,0,0,0,0,0C112.2,61.7,126.1,52.9,129,39.4z M174,39.4c2.9,13.5,16.8,22.3,20.7,35.6c0,0,0,0,0,0
		c-3.8,13.3-17.8,22.1-20.7,35.6c0,0,0,0,0,0c-2.9-13.5-16.8-22.3-20.7-35.6c0,0,0,0,0,0C157.2,61.7,171.1,52.9,174,39.4z M219,39.4
		c2.9,13.5,16.8,22.3,20.7,35.6c0,0,0,0,0,0c-3.8,13.3-17.8,22.1-20.7,35.6c0,0,0,0,0,0c-2.9-13.5-16.8-22.3-20.7-35.6c0,0,0,0,0,0
		C202.2,61.7,216.1,52.9,219,39.4z M264,39.4c2.9,13.5,16.8,22.3,20.7,35.6c0,0,0,0,0,0c-3.8,13.3-17.8,22.1-20.7,35.6c0,0,0,0,0,0
		c-2.9-13.5-16.8-22.3-20.7-35.6c0,0,0,0,0,0C247.2,61.7,261.1,52.9,264,39.4z M309,39.4c2.9,13.5,16.8,22.3,20.7,35.6c0,0,0,0,0,0
		c-3.8,13.3-17.8,22.1-20.7,35.6c0,0,0,0,0,0c-2.9-13.5-16.8-22.3-20.7-35.6c0,0,0,0,0,0C292.2,61.7,306.1,52.9,309,39.4z M354,39.4
		c2.9,13.5,16.8,22.3,20.7,35.6c0,0,0,0,0,0c-3.8,13.3-17.8,22.1-20.7,35.6c0,0,0,0,0,0c-2.9-13.5-16.8-22.3-20.7-35.6c0,0,0,0,0,0
		C337.2,61.7,351.1,52.9,354,39.4z M399,39.4c2.9,13.5,16.8,22.3,20.7,35.6c0,0,0,0,0,0c-3.8,13.3-17.8,22.1-20.7,35.6c0,0,0,0,0,0
		c-2.9-13.5-16.8-22.3-20.7-35.6c0,0,0,0,0,0C382.2,61.7,396.1,52.9,399,39.4z M419.7,156c-3.8,13.3-17.8,22.1-20.7,35.6
		c0,0,0,0,0,0c-2.9-13.5-16.8-22.3-20.7-35.6c0,0,0,0,0,0c3.8-13.3,17.8-22.1,20.7-35.6C401.9,133.9,415.8,142.7,419.7,156
		C419.6,156,419.6,156,419.7,156z M419.7,237c-3.8,13.3-17.8,22.1-20.7,35.6c0,0,0,0,0,0c-2.9-13.5-16.8-22.3-20.7-35.6c0,0,0,0,0,0
		c3.8-13.3,17.8-22.1,20.7-35.6C401.9,214.9,415.8,223.7,419.7,237C419.6,237,419.6,237,419.7,237z M376.5,312.9
		c-2.4-5.3-6-10-9.6-14.6c-4.6-6-9.9-12.8-9.9-20.8c0-8,5.3-14.7,9.9-20.8c3.6-4.6,7.2-9.3,9.6-14.6c2.4,5.3,6,10,9.6,14.6
		c4.6,6,9.9,12.8,9.9,20.8c0,8-5.3,14.7-9.9,20.8C382.5,302.9,378.9,307.6,376.5,312.9z M354,272.6C354,272.6,354,272.6,354,272.6
		c-2.9-13.5-16.8-22.3-20.7-35.6c0,0,0,0,0,0c3.8-13.3,17.8-22.1,20.7-35.6c2.9,13.5,16.8,22.3,20.7,35.6c0,0,0,0,0,0
		C370.8,250.3,356.9,259.1,354,272.6z M331.5,312.9c-2.4-5.3-6-10-9.6-14.6c-4.6-6-9.9-12.8-9.9-20.8c0-8,5.3-14.7,9.9-20.8
		c3.6-4.6,7.2-9.3,9.6-14.6c2.4,5.3,6,10,9.6,14.6c4.6,6,9.9,12.8,9.9,20.8c0,8-5.3,14.7-9.9,20.8
		C337.5,302.9,333.9,307.6,331.5,312.9z M309,272.6C309,272.6,309,272.6,309,272.6c-2.9-13.5-16.8-22.3-20.7-35.6c0,0,0,0,0,0
		c3.8-13.3,17.8-22.1,20.7-35.6c2.9,13.5,16.8,22.3,20.7,35.6c0,0,0,0,0,0C325.8,250.3,311.9,259.1,309,272.6z M286.5,312.9
		c-2.4-5.3-6-10-9.6-14.6c-4.6-6-9.9-12.8-9.9-20.8c0-8,5.3-14.7,9.9-20.8c3.6-4.6,7.2-9.3,9.6-14.6c2.4,5.3,6,10,9.6,14.6
		c4.6,6,9.9,12.8,9.9,20.8c0,8-5.3,14.7-9.9,20.8C292.5,302.9,288.9,307.6,286.5,312.9z M264,272.6C264,272.6,264,272.6,264,272.6
		c-2.9-13.5-16.8-22.3-20.7-35.6c0,0,0,0,0,0c3.8-13.3,17.8-22.1,20.7-35.6c2.9,13.5,16.8,22.3,20.7,35.6c0,0,0,0,0,0
		C280.8,250.3,266.9,259.1,264,272.6z M241.5,312.9c-2.4-5.3-6-10-9.6-14.6c-4.6-6-9.9-12.8-9.9-20.8c0-8,5.3-14.7,9.9-20.8
		c3.6-4.6,7.2-9.3,9.6-14.6c2.4,5.3,6,10,9.6,14.6c4.6,6,9.9,12.8,9.9,20.8c0,8-5.3,14.7-9.9,20.8
		C247.5,302.9,243.9,307.6,241.5,312.9z M219,272.6C219,272.6,219,272.6,219,272.6c-2.9-13.5-16.8-22.3-20.7-35.6c0,0,0,0,0,0
		c3.8-13.3,17.8-22.1,20.7-35.6c2.9,13.5,16.8,22.3,20.7,35.6c0,0,0,0,0,0C235.8,250.3,221.9,259.1,219,272.6z M196.5,312.9
		c-2.4-5.3-6-10-9.6-14.6c-4.6-6-9.9-12.8-9.9-20.8c0-8,5.3-14.7,9.9-20.8c3.6-4.6,7.2-9.3,9.6-14.6c2.4,5.3,6,10,9.6,14.6
		c4.6,6,9.9,12.8,9.9,20.8c0,8-5.3,14.7-9.9,20.8C202.5,302.9,198.9,307.6,196.5,312.9z M174,272.6C174,272.6,174,272.6,174,272.6
		c-2.9-13.5-16.8-22.3-20.7-35.6c0,0,0,0,0,0c3.8-13.3,17.8-22.1,20.7-35.6c2.9,13.5,16.8,22.3,20.7,35.6c0,0,0,0,0,0
		C190.8,250.3,176.9,259.1,174,272.6z M151.5,312.9c-2.4-5.3-6-10-9.6-14.6c-4.6-6-9.9-12.8-9.9-20.8c0-8,5.3-14.7,9.9-20.8
		c3.6-4.6,7.2-9.3,9.6-14.6c2.4,5.3,6,10,9.6,14.6c4.6,6,9.9,12.8,9.9,20.8c0,8-5.3,14.7-9.9,20.8
		C157.5,302.9,153.9,307.6,151.5,312.9z M129,272.6C129,272.6,129,272.6,129,272.6c-2.9-13.5-16.8-22.3-20.7-35.6c0,0,0,0,0,0
		c3.8-13.3,17.8-22.1,20.7-35.6c2.9,13.5,16.8,22.3,20.7,35.6c0,0,0,0,0,0C145.8,250.3,131.9,259.1,129,272.6z M106.5,312.9
		c-2.4-5.3-6-10-9.6-14.6c-4.6-6-9.9-12.8-9.9-20.8c0-8,5.3-14.7,9.9-20.8c3.6-4.6,7.2-9.3,9.6-14.6c2.4,5.3,6,10,9.6,14.6
		c4.6,6,9.9,12.8,9.9,20.8c0,8-5.3,14.7-9.9,20.8C112.5,302.9,108.9,307.6,106.5,312.9z M84,272.6C84,272.6,84,272.6,84,272.6
		c-2.9-13.5-16.8-22.3-20.7-35.6c0,0,0,0,0,0c3.8-13.3,17.8-22.1,20.7-35.6c2.9,13.5,16.8,22.3,20.7,35.6c0,0,0,0,0,0
		C100.8,250.3,86.9,259.1,84,272.6z M61.5,312.9c-2.4-5.3-6-10-9.6-14.6c-4.6-6-9.9-12.8-9.9-20.8c0-8,5.3-14.7,9.9-20.8
		c3.6-4.6,7.2-9.3,9.6-14.6c2.4,5.3,6,10,9.6,14.6c4.6,6,9.9,12.8,9.9,20.8c0,8-5.3,14.7-9.9,20.8C67.5,302.9,63.9,307.6,61.5,312.9
		z M61.5,80.1c2.4,5.3,6,10,9.6,14.6c4.6,6,9.9,12.8,9.9,20.8c0,8-5.3,14.7-9.9,20.8c-3.6,4.6-7.2,9.3-9.6,14.6
		c-2.4-5.3-6-10-9.6-14.6c-4.6-6-9.9-12.8-9.9-20.8c0-8,5.3-14.7,9.9-20.8C55.4,90.1,59.1,85.4,61.5,80.1z M84,120.4
		c2.9,13.5,16.8,22.3,20.7,35.6c0,0,0,0,0,0c-3.8,13.3-17.8,22.1-20.7,35.6c0,0,0,0,0,0c-2.9-13.5-16.8-22.3-20.7-35.6c0,0,0,0,0,0
		C67.2,142.7,81.1,133.9,84,120.4z M106.5,80.1c2.4,5.3,6,10,9.6,14.6c4.6,6,9.9,12.8,9.9,20.8c0,8-5.3,14.7-9.9,20.8
		c-3.6,4.6-7.2,9.3-9.6,14.6c-2.4-5.3-6-10-9.6-14.6c-4.6-6-9.9-12.8-9.9-20.8c0-8,5.3-14.7,9.9-20.8
		C100.4,90.1,104.1,85.4,106.5,80.1z M129,120.4c2.9,13.5,16.8,22.3,20.7,35.6c0,0,0,0,0,0c-3.8,13.3-17.8,22.1-20.7,35.6
		c0,0,0,0,0,0c-2.9-13.5-16.8-22.3-20.7-35.6c0,0,0,0,0,0C112.2,142.7,126.1,133.9,129,120.4z M151.5,80.1c2.4,5.3,6,10,9.6,14.6
		c4.6,6,9.9,12.8,9.9,20.8c0,8-5.3,14.7-9.9,20.8c-3.6,4.6-7.2,9.3-9.6,14.6c-2.4-5.3-6-10-9.6-14.6c-4.6-6-9.9-12.8-9.9-20.8
		c0-8,5.3-14.7,9.9-20.8C145.4,90.1,149.1,85.4,151.5,80.1z M174,120.4c2.9,13.5,16.8,22.3,20.7,35.6c0,0,0,0,0,0
		c-3.8,13.3-17.8,22.1-20.7,35.6c0,0,0,0,0,0c-2.9-13.5-16.8-22.3-20.7-35.6c0,0,0,0,0,0C157.2,142.7,171.1,133.9,174,120.4z
		 M196.5,80.1c2.4,5.3,6,10,9.6,14.6c4.6,6,9.9,12.8,9.9,20.8c0,8-5.3,14.7-9.9,20.8c-3.6,4.6-7.2,9.3-9.6,14.6
		c-2.4-5.3-6-10-9.6-14.6c-4.6-6-9.9-12.8-9.9-20.8c0-8,5.3-14.7,9.9-20.8C190.4,90.1,194.1,85.4,196.5,80.1z M219,120.4
		c2.9,13.5,16.8,22.3,20.7,35.6c0,0,0,0,0,0c-3.8,13.3-17.8,22.1-20.7,35.6c0,0,0,0,0,0c-2.9-13.5-16.8-22.3-20.7-35.6c0,0,0,0,0,0
		C202.2,142.7,216.1,133.9,219,120.4z M241.5,80.1c2.4,5.3,6,10,9.6,14.6c4.6,6,9.9,12.8,9.9,20.8c0,8-5.3,14.7-9.9,20.8
		c-3.6,4.6-7.2,9.3-9.6,14.6c-2.4-5.3-6-10-9.6-14.6c-4.6-6-9.9-12.8-9.9-20.8c0-8,5.3-14.7,9.9-20.8
		C235.4,90.1,239.1,85.4,241.5,80.1z M264,120.4c2.9,13.5,16.8,22.3,20.7,35.6c0,0,0,0,0,0c-3.8,13.3-17.8,22.1-20.7,35.6
		c0,0,0,0,0,0c-2.9-13.5-16.8-22.3-20.7-35.6c0,0,0,0,0,0C247.2,142.7,261.1,133.9,264,120.4z M286.5,80.1c2.4,5.3,6,10,9.6,14.6
		c4.6,6,9.9,12.8,9.9,20.8c0,8-5.3,14.7-9.9,20.8c-3.6,4.6-7.2,9.3-9.6,14.6c-2.4-5.3-6-10-9.6-14.6c-4.6-6-9.9-12.8-9.9-20.8
		c0-8,5.3-14.7,9.9-20.8C280.4,90.1,284.1,85.4,286.5,80.1z M309,120.4c2.9,13.5,16.8,22.3,20.7,35.6c0,0,0,0,0,0
		c-3.8,13.3-17.8,22.1-20.7,35.6c0,0,0,0,0,0c-2.9-13.5-16.8-22.3-20.7-35.6c0,0,0,0,0,0C292.2,142.7,306.1,133.9,309,120.4z
		 M331.5,80.1c2.4,5.3,6,10,9.6,14.6c4.6,6,9.9,12.8,9.9,20.8c0,8-5.3,14.7-9.9,20.8c-3.6,4.6-7.2,9.3-9.6,14.6
		c-2.4-5.3-6-10-9.6-14.6c-4.6-6-9.9-12.8-9.9-20.8c0-8,5.3-14.7,9.9-20.8C325.4,90.1,329.1,85.4,331.5,80.1z M354,120.4
		c2.9,13.5,16.8,22.3,20.7,35.6c0,0,0,0,0,0c-3.8,13.3-17.8,22.1-20.7,35.6c0,0,0,0,0,0c-2.9-13.5-16.8-22.3-20.7-35.6c0,0,0,0,0,0
		C337.2,142.7,351.1,133.9,354,120.4z M376.5,80.1c2.4,5.3,6,10,9.6,14.6c4.6,6,9.9,12.8,9.9,20.8c0,8-5.3,14.7-9.9,20.8
		c-3.6,4.6-7.2,9.3-9.6,14.6c-2.4-5.3-6-10-9.6-14.6c-4.6-6-9.9-12.8-9.9-20.8c0-8,5.3-14.7,9.9-20.8
		C370.4,90.1,374.1,85.4,376.5,80.1z M376.5,231.9c-2.4-5.3-6-10-9.6-14.6c-4.6-6-9.9-12.8-9.9-20.8c0-8,5.3-14.7,9.9-20.8
		c3.6-4.6,7.2-9.3,9.6-14.6c2.4,5.3,6,10,9.6,14.6c4.6,6,9.9,12.8,9.9,20.8c0,8-5.3,14.7-9.9,20.8
		C382.5,221.9,378.9,226.6,376.5,231.9z M331.5,231.9c-2.4-5.3-6-10-9.6-14.6c-4.6-6-9.9-12.8-9.9-20.8c0-8,5.3-14.7,9.9-20.8
		c3.6-4.6,7.2-9.3,9.6-14.6c2.4,5.3,6,10,9.6,14.6c4.6,6,9.9,12.8,9.9,20.8c0,8-5.3,14.7-9.9,20.8
		C337.5,221.9,333.9,226.6,331.5,231.9z M286.5,231.9c-2.4-5.3-6-10-9.6-14.6c-4.6-6-9.9-12.8-9.9-20.8c0-8,5.3-14.7,9.9-20.8
		c3.6-4.6,7.2-9.3,9.6-14.6c2.4,5.3,6,10,9.6,14.6c4.6,6,9.9,12.8,9.9,20.8c0,8-5.3,14.7-9.9,20.8
		C292.5,221.9,288.9,226.6,286.5,231.9z M241.5,231.9c-2.4-5.3-6-10-9.6-14.6c-4.6-6-9.9-12.8-9.9-20.8c0-8,5.3-14.7,9.9-20.8
		c3.6-4.6,7.2-9.3,9.6-14.6c2.4,5.3,6,10,9.6,14.6c4.6,6,9.9,12.8,9.9,20.8c0,8-5.3,14.7-9.9,20.8
		C247.5,221.9,243.9,226.6,241.5,231.9z M196.5,231.9c-2.4-5.3-6-10-9.6-14.6c-4.6-6-9.9-12.8-9.9-20.8c0-8,5.3-14.7,9.9-20.8
		c3.6-4.6,7.2-9.3,9.6-14.6c2.4,5.3,6,10,9.6,14.6c4.6,6,9.9,12.8,9.9,20.8c0,8-5.3,14.7-9.9,20.8
		C202.5,221.9,198.9,226.6,196.5,231.9z M151.5,231.9c-2.4-5.3-6-10-9.6-14.6c-4.6-6-9.9-12.8-9.9-20.8c0-8,5.3-14.7,9.9-20.8
		c3.6-4.6,7.2-9.3,9.6-14.6c2.4,5.3,6,10,9.6,14.6c4.6,6,9.9,12.8,9.9,20.8c0,8-5.3,14.7-9.9,20.8
		C157.5,221.9,153.9,226.6,151.5,231.9z M106.5,231.9c-2.4-5.3-6-10-9.6-14.6c-4.6-6-9.9-12.8-9.9-20.8c0-8,5.3-14.7,9.9-20.8
		c3.6-4.6,7.2-9.3,9.6-14.6c2.4,5.3,6,10,9.6,14.6c4.6,6,9.9,12.8,9.9,20.8c0,8-5.3,14.7-9.9,20.8
		C112.5,221.9,108.9,226.6,106.5,231.9z M61.5,161.1c2.4,5.3,6,10,9.6,14.6c4.6,6,9.9,12.8,9.9,20.8c0,8-5.3,14.7-9.9,20.8
		c-3.6,4.6-7.2,9.3-9.6,14.6c-2.4-5.3-6-10-9.6-14.6c-4.6-6-9.9-12.8-9.9-20.8c0-8,5.3-14.7,9.9-20.8
		C55.4,171.1,59.1,166.4,61.5,161.1z M399,2.9h16.5c-5.7,8.9-14.3,16.5-16.5,26.7c0,0,0,0,0,0c-2.2-10.2-10.8-17.8-16.5-26.7H399z
		 M378.4,2.9c2.2,3.8,5,7.3,7.7,10.8c4.6,6,9.9,12.8,9.9,20.8c0,8-5.3,14.7-9.9,20.8c-3.6,4.6-7.2,9.3-9.6,14.6
		c-2.4-5.3-6-10-9.6-14.6c-4.6-6-9.9-12.8-9.9-20.8c0-8,5.3-14.7,9.9-20.8c2.7-3.5,5.5-7,7.7-10.8H378.4z M354,2.9h16.5
		c-5.7,8.9-14.3,16.5-16.5,26.7c0,0,0,0,0,0c-2.2-10.2-10.8-17.8-16.5-26.7H354z M333.4,2.9c2.2,3.8,5,7.3,7.7,10.8
		c4.6,6,9.9,12.8,9.9,20.8c0,8-5.3,14.7-9.9,20.8c-3.6,4.6-7.2,9.3-9.6,14.6c-2.4-5.3-6-10-9.6-14.6c-4.6-6-9.9-12.8-9.9-20.8
		c0-8,5.3-14.7,9.9-20.8c2.7-3.5,5.5-7,7.7-10.8H333.4z M309,2.9h16.5c-5.7,8.9-14.3,16.5-16.5,26.7c0,0,0,0,0,0
		c-2.2-10.2-10.8-17.8-16.5-26.7H309z M288.4,2.9c2.2,3.8,5,7.3,7.7,10.8c4.6,6,9.9,12.8,9.9,20.8c0,8-5.3,14.7-9.9,20.8
		c-3.6,4.6-7.2,9.3-9.6,14.6c-2.4-5.3-6-10-9.6-14.6c-4.6-6-9.9-12.8-9.9-20.8c0-8,5.3-14.7,9.9-20.8c2.7-3.5,5.5-7,7.7-10.8H288.4z
		 M264,2.9h16.5c-5.7,8.9-14.3,16.5-16.5,26.7c0,0,0,0,0,0c-2.2-10.2-10.8-17.8-16.5-26.7H264z M243.4,2.9c2.2,3.8,5,7.3,7.7,10.8
		c4.6,6,9.9,12.8,9.9,20.8c0,8-5.3,14.7-9.9,20.8c-3.6,4.6-7.2,9.3-9.6,14.6c-2.4-5.3-6-10-9.6-14.6c-4.6-6-9.9-12.8-9.9-20.8
		c0-8,5.3-14.7,9.9-20.8c2.7-3.5,5.5-7,7.7-10.8H243.4z M219,2.9h16.5c-5.7,8.9-14.3,16.5-16.5,26.7c0,0,0,0,0,0
		c-2.2-10.2-10.8-17.8-16.5-26.7H219z M198.4,2.9c2.2,3.8,5,7.3,7.7,10.8c4.6,6,9.9,12.8,9.9,20.8c0,8-5.3,14.7-9.9,20.8
		c-3.6,4.6-7.2,9.3-9.6,14.6c-2.4-5.3-6-10-9.6-14.6c-4.6-6-9.9-12.8-9.9-20.8c0-8,5.3-14.7,9.9-20.8c2.7-3.5,5.5-7,7.7-10.8H198.4z
		 M174,2.9h16.5c-5.7,8.9-14.3,16.5-16.5,26.7c0,0,0,0,0,0c-2.2-10.2-10.8-17.8-16.5-26.7H174z M153.4,2.9c2.2,3.8,5,7.3,7.7,10.8
		c4.6,6,9.9,12.8,9.9,20.8c0,8-5.3,14.7-9.9,20.8c-3.6,4.6-7.2,9.3-9.6,14.6c-2.4-5.3-6-10-9.6-14.6c-4.6-6-9.9-12.8-9.9-20.8
		c0-8,5.3-14.7,9.9-20.8c2.7-3.5,5.5-7,7.7-10.8H153.4z M129,2.9h16.5c-5.7,8.9-14.3,16.5-16.5,26.7c0,0,0,0,0,0
		c-2.2-10.2-10.8-17.8-16.5-26.7H129z M108.4,2.9c2.2,3.8,5,7.3,7.7,10.8c4.6,6,9.9,12.8,9.9,20.8c0,8-5.3,14.7-9.9,20.8
		c-3.6,4.6-7.2,9.3-9.6,14.6c-2.4-5.3-6-10-9.6-14.6c-4.6-6-9.9-12.8-9.9-20.8c0-8,5.3-14.7,9.9-20.8c2.7-3.5,5.5-7,7.7-10.8H108.4z
		 M84,2.9h16.5C94.8,11.8,86.2,19.4,84,29.6c0,0,0,0,0,0C81.8,19.4,73.2,11.8,67.5,2.9H84z M63.4,2.9c2.2,3.8,5,7.3,7.7,10.8
		c4.6,6,9.9,12.8,9.9,20.8c0,8-5.3,14.7-9.9,20.8c-3.6,4.6-7.2,9.3-9.6,14.6c-2.4-5.3-6-10-9.6-14.6c-4.6-6-9.9-12.8-9.9-20.8
		c0-8,5.3-14.7,9.9-20.8c2.7-3.5,5.5-7,7.7-10.8H63.4z M39,2.9h16.5C49.8,11.8,41.2,19.4,39,29.6c0,0,0,0,0,0
		C36.8,19.4,28.2,11.8,22.5,2.9H39z M2.9,2.9h7.6c-2.3,3.5-5,6.9-7.6,10.3V2.9z M2.9,19.1c1.3-1.9,2.7-3.7,4-5.4
		c2.7-3.5,5.5-7,7.7-10.8h3.9c2.2,3.8,5,7.3,7.7,10.8c4.6,6,9.9,12.8,9.9,20.8c0,8-5.3,14.7-9.9,20.8c-3.6,4.6-7.2,9.3-9.6,14.6
		c-2.4-5.3-6-10-9.6-14.6c-1.3-1.7-2.7-3.5-4-5.4V19.1z M2.9,75V55.9c4.7,6,9.7,11.9,11.8,19.1c0,0,0,0,0,0
		c-2.1,7.2-7.1,13.1-11.8,19.1V75z M2.9,100.1c1.3-1.9,2.7-3.7,4-5.4c3.6-4.6,7.2-9.3,9.6-14.6c2.4,5.3,6,10,9.6,14.6
		c4.6,6,9.9,12.8,9.9,20.8c0,8-5.3,14.7-9.9,20.8c-3.6,4.6-7.2,9.3-9.6,14.6c-2.4-5.3-6-10-9.6-14.6c-1.3-1.7-2.7-3.5-4-5.4V100.1z
		 M2.9,156v-19.1c4.7,6,9.7,11.9,11.8,19.1c0,0,0,0,0,0c-2.1,7.2-7.1,13.1-11.8,19.1V156z M2.9,181.1c1.3-1.9,2.7-3.7,4-5.4
		c3.6-4.6,7.2-9.3,9.6-14.6c2.4,5.3,6,10,9.6,14.6c4.6,6,9.9,12.8,9.9,20.8c0,8-5.3,14.7-9.9,20.8c-3.6,4.6-7.2,9.3-9.6,14.6
		c-2.4-5.3-6-10-9.6-14.6c-1.3-1.7-2.7-3.5-4-5.4V181.1z M2.9,237v-19.1c4.7,6,9.7,11.9,11.8,19.1c0,0,0,0,0,0
		c-2.1,7.2-7.1,13.1-11.8,19.1V237z M2.9,262.1c1.3-1.9,2.7-3.7,4-5.4c3.6-4.6,7.2-9.3,9.6-14.6c2.4,5.3,6,10,9.6,14.6
		c4.6,6,9.9,12.8,9.9,20.8c0,8-5.3,14.7-9.9,20.8c-3.6,4.6-7.2,9.3-9.6,14.6c-2.4-5.3-6-10-9.6-14.6c-1.3-1.7-2.7-3.5-4-5.4V262.1z
		 M2.9,318v-19.1c4.7,6,9.7,11.9,11.8,19.1c0,0,0,0,0,0c-2.1,7.2-7.1,13.1-11.8,19.1V318z M2.9,343.1c1.3-1.9,2.7-3.7,4-5.4
		c3.6-4.6,7.2-9.3,9.6-14.6c2.4,5.3,6,10,9.6,14.6c4.6,6,9.9,12.8,9.9,20.8c0,8-5.3,14.7-9.9,20.8c-3.6,4.6-7.2,9.3-9.6,14.6
		c-2.4-5.3-6-10-9.6-14.6c-1.3-1.7-2.7-3.5-4-5.4V343.1z M2.9,399v-19.1c4.7,6,9.7,11.9,11.8,19.1c0,0,0,0,0,0
		c-2.1,7.2-7.1,13.1-11.8,19.1V399z M2.9,429.1v-5c1.3-1.9,2.7-3.7,4-5.4c3.6-4.6,7.2-9.3,9.6-14.6c2.4,5.3,6,10,9.6,14.6
		c2.5,3.2,5.2,6.7,7.1,10.4H2.9z M39,429.1h-1.8c-4.8-10.6-15.6-18.7-18.8-30.1c0,0,0,0,0,0c3.8-13.3,17.8-22.1,20.7-35.6
		c2.9,13.5,16.8,22.3,20.7,35.6c0,0,0,0,0,0c-3.3,11.4-14,19.5-18.8,30.1H39z M44.8,429.1c1.9-3.7,4.6-7.2,7.1-10.4
		c3.6-4.6,7.2-9.3,9.6-14.6c2.4,5.3,6,10,9.6,14.6c2.5,3.2,5.2,6.7,7.1,10.4H44.8z M84,429.1h-1.8c-4.8-10.6-15.6-18.7-18.8-30.1
		c0,0,0,0,0,0c3.8-13.3,17.8-22.1,20.7-35.6c2.9,13.5,16.8,22.3,20.7,35.6c0,0,0,0,0,0c-3.3,11.4-14,19.5-18.8,30.1H84z M89.8,429.1
		c1.9-3.7,4.6-7.2,7.1-10.4c3.6-4.6,7.2-9.3,9.6-14.6c2.4,5.3,6,10,9.6,14.6c2.5,3.2,5.2,6.7,7.1,10.4H89.8z M129,429.1h-1.8
		c-4.8-10.6-15.6-18.7-18.8-30.1c0,0,0,0,0,0c3.8-13.3,17.8-22.1,20.7-35.6c2.9,13.5,16.8,22.3,20.7,35.6c0,0,0,0,0,0
		c-3.3,11.4-14,19.5-18.8,30.1H129z M134.8,429.1c1.9-3.7,4.6-7.2,7.1-10.4c3.6-4.6,7.2-9.3,9.6-14.6c2.4,5.3,6,10,9.6,14.6
		c2.5,3.2,5.2,6.7,7.1,10.4H134.8z M174,429.1h-1.8c-4.8-10.6-15.6-18.7-18.8-30.1c0,0,0,0,0,0c3.8-13.3,17.8-22.1,20.7-35.6
		c2.9,13.5,16.8,22.3,20.7,35.6c0,0,0,0,0,0c-3.3,11.4-14,19.5-18.8,30.1H174z M179.8,429.1c1.9-3.7,4.6-7.2,7.1-10.4
		c3.6-4.6,7.2-9.3,9.6-14.6c2.4,5.3,6,10,9.6,14.6c2.5,3.2,5.2,6.7,7.1,10.4H179.8z M219,429.1h-1.8c-4.8-10.6-15.6-18.7-18.8-30.1
		c0,0,0,0,0,0c3.8-13.3,17.8-22.1,20.7-35.6c2.9,13.5,16.8,22.3,20.7,35.6c0,0,0,0,0,0c-3.3,11.4-14,19.5-18.8,30.1H219z
		 M224.8,429.1c1.9-3.7,4.6-7.2,7.1-10.4c3.6-4.6,7.2-9.3,9.6-14.6c2.4,5.3,6,10,9.6,14.6c2.5,3.2,5.2,6.7,7.1,10.4H224.8z
		 M264,429.1h-1.8c-4.8-10.6-15.6-18.7-18.8-30.1c0,0,0,0,0,0c3.8-13.3,17.8-22.1,20.7-35.6c2.9,13.5,16.8,22.3,20.7,35.6
		c0,0,0,0,0,0c-3.3,11.4-14,19.5-18.8,30.1H264z M269.8,429.1c1.9-3.7,4.6-7.2,7.1-10.4c3.6-4.6,7.2-9.3,9.6-14.6
		c2.4,5.3,6,10,9.6,14.6c2.5,3.2,5.2,6.7,7.1,10.4H269.8z M309,429.1h-1.8c-4.8-10.6-15.6-18.7-18.8-30.1c0,0,0,0,0,0
		c3.8-13.3,17.8-22.1,20.7-35.6c2.9,13.5,16.8,22.3,20.7,35.6c0,0,0,0,0,0c-3.3,11.4-14,19.5-18.8,30.1H309z M314.8,429.1
		c1.9-3.7,4.6-7.2,7.1-10.4c3.6-4.6,7.2-9.3,9.6-14.6c2.4,5.3,6,10,9.6,14.6c2.5,3.2,5.2,6.7,7.1,10.4H314.8z M354,429.1h-1.8
		c-4.8-10.6-15.6-18.7-18.8-30.1c0,0,0,0,0,0c3.8-13.3,17.8-22.1,20.7-35.6c2.9,13.5,16.8,22.3,20.7,35.6c0,0,0,0,0,0
		c-3.3,11.4-14,19.5-18.8,30.1H354z M359.8,429.1c1.9-3.7,4.6-7.2,7.1-10.4c3.6-4.6,7.2-9.3,9.6-14.6c2.4,5.3,6,10,9.6,14.6
		c2.5,3.2,5.2,6.7,7.1,10.4H359.8z M399,429.1h-1.8c-4.8-10.6-15.6-18.7-18.8-30.1c0,0,0,0,0,0c3.8-13.3,17.8-22.1,20.7-35.6
		c2.9,13.5,16.8,22.3,20.7,35.6c0,0,0,0,0,0c-3.3,11.4-14,19.5-18.8,30.1H399z M429.1,429.1h-24.3c1.9-3.7,4.6-7.2,7.1-10.4
		c3.6-4.6,7.2-9.3,9.6-14.6c1.9,4.3,4.7,8.2,7.6,12V429.1z M429.1,399v11.3c-2.5-3.5-4.6-7.2-5.8-11.3c0,0,0,0,0,0
		c1.2-4.1,3.3-7.7,5.8-11.3V399z M429.1,318v11.3c-2.5-3.5-4.6-7.2-5.8-11.3c0,0,0,0,0,0c1.2-4.1,3.3-7.7,5.8-11.3V318z M429.1,237
		v11.3c-2.5-3.5-4.6-7.2-5.8-11.3c0,0,0,0,0,0c1.2-4.1,3.3-7.7,5.8-11.3V237z M429.1,156v11.3c-2.5-3.5-4.6-7.2-5.8-11.3
		c0,0,0,0,0,0c1.2-4.1,3.3-7.7,5.8-11.3V156z M429.1,75v11.3c-2.5-3.5-4.6-7.2-5.8-11.3c0,0,0,0,0,0c1.2-4.1,3.3-7.7,5.8-11.3V75z
		 M427.5,2.9h1.6v2.4C428.6,4.5,428,3.7,427.5,2.9z"/>
</g>
</svg>
